<svg width="60" height="60" viewBox="0 0 60 60" fill="none" xmlns="http://www.w3.org/2000/svg">
<circle cx="30" cy="30" r="30" fill="url(#paint0_linear)"/>
<path d="M18.8723 47.538C18.4709 48.1231 17.8757 48.2109 17.3645 47.8601C16.8637 47.5165 16.7874 46.9952 17.1617 46.4496L18.8288 44.0198L17.8748 43.3653L16.1064 45.9427C15.4356 46.9204 15.6147 47.8456 16.4554 48.4224C17.0773 48.8491 17.6661 48.8384 18.1679 48.5082L18.2153 48.5407L16.8176 50.5779L17.7505 51.218L21.4536 45.8207L20.4996 45.1662L18.8723 47.538Z" fill="white"/>
<path d="M16.0124 38.2148C15.6149 37.4059 14.9692 37.1428 14.1438 37.2385L8.34047 37.8931L8.88023 39.006L12.708 38.3893L12.7305 38.4352L9.90215 41.0856L10.4434 42.1871L14.156 38.3792L14.4377 38.3512C15.0341 38.2967 15.218 38.5838 15.3087 39.1019L16.236 38.9453C16.2243 38.7766 16.1519 38.4988 16.0124 38.2148Z" fill="white"/>
<path d="M9.90207 27.7505C10.6488 27.7924 10.9891 28.346 10.9605 28.8566C10.9294 29.4118 10.5161 29.76 9.89388 29.7251L6.95176 29.5603L6.88704 30.7154L10.0079 30.8903C11.1853 30.9563 11.8898 30.3235 11.9438 29.3598C11.9849 28.6259 11.6278 28.0873 11.0914 27.8332L11.0943 27.7821L11.9654 27.8309L12.0282 26.7109L7.12678 26.4363L7.06206 27.5914L9.90207 27.7505Z" fill="white"/>
<path d="M13.3789 22.0117L14.0467 21.0669L11.609 19.3439C11.1157 18.9953 11.0141 18.4303 11.3019 18.0231C11.5841 17.6238 12.0466 17.5398 12.459 17.8313L15.0428 19.6575L15.6977 18.731L13.1974 16.9638C12.7459 16.6446 12.6227 16.1545 12.9455 15.6977C13.2149 15.3167 13.6533 15.1726 14.1492 15.5231L16.6938 17.3217L17.3635 16.3743L14.6727 14.4724C13.7775 13.8396 12.9372 14.0207 12.417 14.7567C12.0056 15.3387 11.9791 15.9853 12.3 16.4782L12.2704 16.5199C11.7075 16.3529 11.1534 16.5444 10.7715 17.0847C10.3915 17.6223 10.3841 18.2198 10.7227 18.7096L10.6895 18.7566L10.0083 18.2752L9.37006 19.1782L13.3789 22.0117Z" fill="white"/>
<path d="M22.2168 13.6817C22.9273 13.3845 23.2125 12.8737 23.248 12.4119L23.2834 12.3971L23.5437 13.0192L24.5697 12.59L23.3018 9.55902C22.8011 8.36195 21.6747 8.41048 20.8108 8.77185C19.8584 9.17023 19.3048 9.90068 19.4143 10.8249L20.4701 10.5496C20.4467 10.1956 20.6364 9.80441 21.1583 9.58611C21.6537 9.3789 22.031 9.519 22.2172 9.96422L22.2246 9.98191C22.3529 10.2886 22.0377 10.4377 21.2744 10.8575C20.4352 11.3194 19.7047 11.9333 20.1314 12.9534C20.5039 13.8439 21.3529 14.0431 22.2168 13.6817ZM22.1658 12.7815C21.7206 12.9677 21.3171 12.8975 21.153 12.5053C20.9816 12.0955 21.2668 11.7752 21.7161 11.5076C21.9802 11.3521 22.5108 11.047 22.6025 10.877L22.8257 11.4107C23.0366 11.9149 22.8086 12.5126 22.1658 12.7815Z" fill="white"/>
<path d="M31.1998 9.0549C31.2823 8.3502 31.7553 7.99367 32.3616 8.06464C32.9552 8.13413 33.265 8.56619 33.1888 9.21693L32.8462 12.1437L33.9953 12.2782L34.3587 9.17368C34.4987 8.00589 33.9101 7.26124 32.9038 7.14345C32.1737 7.05799 31.6313 7.34846 31.3455 7.86526L31.2884 7.85858L31.3854 7.03007L30.2871 6.90151L29.7163 11.7773L30.8654 11.9118L31.1998 9.0549Z" fill="white"/>
<path d="M44.3927 19.5859C44.8075 20.2349 45.3597 20.4282 45.8207 20.3839L45.8413 20.4162L45.2731 20.7794L45.872 21.7166L48.6405 19.9473C49.7338 19.2485 49.4927 18.1471 48.9884 17.3581C48.4325 16.4882 47.6178 16.0682 46.7261 16.3347L47.1786 17.3275C47.5233 17.2438 47.9412 17.3635 48.2459 17.8402C48.535 18.2926 48.4618 18.6884 48.0551 18.9483L48.039 18.9586C47.7589 19.1376 47.5578 18.8527 47.0133 18.1728C46.4142 17.4253 45.684 16.811 44.7523 17.4065C43.939 17.9263 43.8884 18.7968 44.3927 19.5859ZM45.2709 19.3812C45.011 18.9746 45.0109 18.565 45.3691 18.3361C45.7434 18.0968 46.1079 18.3229 46.4486 18.7195C46.6471 18.953 47.0388 19.4234 47.222 19.4845L46.7346 19.7961C46.2741 20.0904 45.6461 19.9683 45.2709 19.3812Z" fill="white"/>
<path d="M47.676 26.5553L47.6868 27.7122L50.6718 27.6843C51.2758 27.6786 51.6886 28.0775 51.6933 28.576C51.6979 29.065 51.3718 29.4036 50.8669 29.4084L47.703 29.438L47.7136 30.5725L50.7752 30.5439C51.3281 30.5387 51.7147 30.8643 51.7199 31.4236C51.7243 31.8902 51.4529 32.2634 50.8457 32.2691L47.7297 32.2983L47.7406 33.4584L51.0355 33.4276C52.1317 33.4173 52.7075 32.7791 52.699 31.8778C52.6924 31.1652 52.3357 30.6251 51.7872 30.4129L51.7867 30.3618C52.341 30.168 52.6785 29.6887 52.6724 29.0271C52.6662 28.3688 52.3228 27.8798 51.7616 27.6805L51.7611 27.6229L52.5952 27.6151L52.5849 26.5094L47.676 26.5553Z" fill="white"/>
<path d="M45.3784 38.4808C44.9759 39.1375 45.0432 39.7186 45.2845 40.114L45.2644 40.1467L44.6895 39.7942L44.1082 40.7424L46.9092 42.4596C48.0155 43.1378 48.9008 42.4397 49.3902 41.6413C49.9298 40.7613 49.9517 39.845 49.3224 39.1593L48.627 40.0001C48.853 40.2735 48.9278 40.7018 48.6321 41.1841C48.3515 41.6418 47.9635 41.7489 47.5521 41.4966L47.5357 41.4866C47.2523 41.3129 47.4208 41.0075 47.7945 40.2207C48.2051 39.3553 48.4386 38.43 47.4959 37.8521C46.673 37.3476 45.8679 37.6825 45.3784 38.4808ZM45.9462 39.1813C46.1984 38.7699 46.5668 38.5909 46.9292 38.813C47.308 39.0452 47.2639 39.4718 47.056 39.9516C46.9327 40.2322 46.6807 40.79 46.7057 40.9815L46.2125 40.6792C45.7466 40.3935 45.582 39.7753 45.9462 39.1813Z" fill="white"/>
<path d="M40.2924 44.3872L39.3089 44.9966L40.829 47.4498C41.1572 47.9796 40.9902 48.602 40.4496 48.937C40.2838 49.0396 40.0588 49.1377 39.9578 49.1627L40.5184 50.0674C40.6181 50.0281 40.7797 49.9431 40.8884 49.8757C41.3665 49.5794 41.5975 49.0603 41.45 48.4825L41.4935 48.4555L41.9245 49.151L42.878 48.5601L40.2924 44.3872Z" fill="white"/>
<defs>
<linearGradient id="paint0_linear" x1="9.69231" y1="19.3846" x2="46.1538" y2="42.4615" gradientUnits="userSpaceOnUse">
<stop stop-color="#FF9F57"/>
<stop offset="0.348958" stop-color="#F981AD"/>
<stop offset="0.6875" stop-color="#A983E9" stop-opacity="0.98625"/>
<stop offset="1" stop-color="#43AEFE" stop-opacity="0.97"/>
</linearGradient>
</defs>
</svg>
